<svg xmlns="http://www.w3.org/2000/svg" width="8" height="8" viewBox="0 0 8 8">
  <g transform="translate(-131.832 -36.55)">
    <path d="M136.3,41.078c-1.022,1.023-2.05,2.04-3.063,3.071-.366.372-.757.6-1.185.165s-.154-.828.2-1.182q3.071-3.062,6.133-6.134c.353-.355.746-.657,1.186-.239.481.456.184.876-.2,1.257-1.029,1.016-2.047,2.043-3.069,3.065Z" fill="#af7f2a"/>
    <path d="M135.311,41.024c-1.022-1.023-2.039-2.051-3.069-3.065-.372-.366-.6-.758-.165-1.185s.827-.154,1.181.2q3.061,3.073,6.131,6.137c.355.353.657.746.239,1.187-.456.481-.875.184-1.256-.2-1.015-1.03-2.042-2.048-3.064-3.07Z" fill="#af7f2a"/>
  </g>
</svg>
