<svg xmlns="http://www.w3.org/2000/svg" width="11" height="13" viewBox="0 0 11 13">
  <g transform="translate(-134.686 -33.68)">
    <path d="M140.146,46.674c-1.492,0-2.983-.008-4.475,0-.538,0-.988-.113-.985-.715,0-.621.492-.688,1.009-.687q4.475.008,8.95,0c.517,0,1.023.062,1.04.664.018.657-.5.742-1.064.739-1.492-.01-2.983,0-4.475,0Z" fill="#af7f2a"/>
    <path d="M140.146,40.866c-1.492,0-2.983-.008-4.475,0-.538,0-.988-.113-.985-.715,0-.621.492-.688,1.009-.687q4.475.008,8.95,0c.517,0,1.023.062,1.04.664.018.657-.5.742-1.064.739-1.492-.01-2.983,0-4.475,0Z" fill="#af7f2a"/>
    <path d="M140.186,35.04c-1.493,0-2.986,0-4.478,0-.509,0-1.021-.04-1.022-.666,0-.6.473-.7,1-.695q4.477.013,8.956,0c.519,0,1.014.052,1.021.672s-.477.694-1,.69c-1.493-.011-2.984,0-4.477,0" fill="#af7f2a"/>
  </g>
</svg>
