<svg xmlns="http://www.w3.org/2000/svg" xmlns:xlink="http://www.w3.org/1999/xlink" width="19.999" height="25.001" viewBox="0 0 19.999 25.001"><defs><clipPath id="a"><rect width="19.999" height="25.001" transform="translate(0 -0.001)" fill="none"/></clipPath></defs><g transform="translate(0 0.001)"><g clip-path="url(#a)"><path d="M9.928,24.987c-2.712,0-5.425-.015-8.137.008C.812,25-.006,24.778,0,23.622.006,22.428.9,22.3,1.836,22.3q8.135.016,16.273,0c.939,0,1.859.12,1.89,1.277.034,1.263-.917,1.427-1.935,1.419-2.712-.018-5.425-.006-8.137-.006Z" fill="#af7f2a"/><path d="M10,2.615c-2.715,0-5.428-.008-8.141,0C.932,2.621,0,2.542,0,1.337,0,.174.86,0,1.826,0Q9.967.027,18.109,0c.944,0,1.845.1,1.856,1.293S19.1,2.63,18.14,2.623c-2.713-.02-5.426-.008-8.14-.008" fill="#af7f2a"/><path d="M10,13.759c-2.715,0-5.428-.008-8.141,0C.932,13.765,0,13.685,0,12.481c0-1.163.86-1.338,1.826-1.337,5.428.018,5.217.017,10.645,0,.945,0,1.846.1,1.858,1.293s-.869,1.334-1.826,1.326c-2.715-.02.211-.008-2.5-.008" fill="#af7f2a"/></g></g></svg>