<svg xmlns="http://www.w3.org/2000/svg" xmlns:xlink="http://www.w3.org/1999/xlink" width="136" height="73" viewBox="0 0 136 73"><defs><clipPath id="a"><rect width="136" height="73" fill="none"/></clipPath></defs><g clip-path="url(#a)"><path d="M89.515,22.712c0-6.558-.015-13.115.019-19.672,0-.827-.2-1.095-1.073-1.093q-20.011.04-40.023,0c-.89,0-1.063.284-1.061,1.1q.036,19.732,0,39.465c0,.868.169,1.167,1.124,1.164q19.95-.05,39.9,0c.948,0,1.137-.293,1.132-1.165-.035-6.6-.019-13.2-.018-19.793m-44.1.123c0-7.239.019-14.479-.023-21.718C45.388.206,45.626,0,46.533,0q21.9.045,43.794,0c.949,0,1.209.218,1.207,1.185q-.052,21.6,0,43.194c0,1.01-.265,1.254-1.276,1.252q-21.775-.051-43.55.005c-1.1,0-1.325-.281-1.318-1.325.05-7.158.026-14.317.026-21.476" fill="#af7f2a"/><path d="M68.388,32.8c-2.206,0-4.412-.012-6.619.006-.8.006-1.461-.173-1.457-1.1,0-.952.727-1.055,1.493-1.053q6.619.012,13.237,0c.764,0,1.514.1,1.538,1.018.027,1.007-.746,1.138-1.574,1.133-2.206-.015-4.412-.005-6.619-.005Z" fill="#af7f2a"/><path d="M68.447,14.96c-2.208,0-4.415-.006-6.623,0-.753,0-1.511-.061-1.512-1.022,0-.926.7-1.067,1.485-1.065q6.622.021,13.245,0c.768,0,1.5.08,1.51,1.03s-.706,1.064-1.484,1.058c-2.207-.017-4.414-.006-6.622-.006" fill="#af7f2a"/><path d="M71.127,21.777a1.021,1.021,0,0,1,.8,1.276c-.157.672-.685.808-1.3.806q-4.508-.013-9.015,0c-.5,0-.953-.074-1.179-.575a1.042,1.042,0,0,1,.471-1.436l10.221-.066" fill="#af7f2a"/><path d="M8.5,61.937H2.615v3.156H8.038a1.3,1.3,0,0,1,.893.267.907.907,0,0,1,.295.705.943.943,0,0,1-.29.715,1.264,1.264,0,0,1-.9.276H2.615v3.656H8.707A1.338,1.338,0,0,1,9.636,71a.979.979,0,0,1,.312.758.957.957,0,0,1-.312.741,1.338,1.338,0,0,1-.929.285H1.6A1.681,1.681,0,0,1,.374,72.4,1.679,1.679,0,0,1,0,71.186V61.525a2.154,2.154,0,0,1,.167-.916,1.036,1.036,0,0,1,.524-.517A2.207,2.207,0,0,1,1.6,59.93H8.5a1.345,1.345,0,0,1,.929.276.931.931,0,0,1,.3.724.941.941,0,0,1-.3.732,1.345,1.345,0,0,1-.929.276" fill="#af7f2a"/><path d="M15.039,61.288v9.353h5.3a1.4,1.4,0,0,1,.973.307,1,1,0,0,1,.339.772.973.973,0,0,1-.335.767,1.44,1.44,0,0,1-.977.294H14.027A1.678,1.678,0,0,1,12.8,72.4a1.679,1.679,0,0,1-.374-1.218v-9.9a1.719,1.719,0,0,1,.356-1.184,1.2,1.2,0,0,1,.938-.394,1.248,1.248,0,0,1,.955.389,1.687,1.687,0,0,1,.366,1.188" fill="#af7f2a"/><path d="M32.324,61.937h-5.89v3.156h5.424a1.3,1.3,0,0,1,.893.267.907.907,0,0,1,.295.705.943.943,0,0,1-.29.715,1.264,1.264,0,0,1-.9.276H26.433v3.656h6.092a1.338,1.338,0,0,1,.929.285.979.979,0,0,1,.312.758.957.957,0,0,1-.312.741,1.338,1.338,0,0,1-.929.285h-7.1a1.366,1.366,0,0,1-1.6-1.6V61.525a2.154,2.154,0,0,1,.167-.916,1.036,1.036,0,0,1,.524-.517,2.207,2.207,0,0,1,.912-.162h6.9a1.345,1.345,0,0,1,.929.276.931.931,0,0,1,.3.724.941.941,0,0,1-.3.732,1.345,1.345,0,0,1-.929.276" fill="#af7f2a"/><path d="M47.293,68.722a3.419,3.419,0,0,1-.3,1.328,4.8,4.8,0,0,1-.955,1.4,4.878,4.878,0,0,1-1.664,1.118A6.005,6.005,0,0,1,42.01,73a8.287,8.287,0,0,1-1.858-.193,5.22,5.22,0,0,1-1.519-.6,5.11,5.11,0,0,1-1.255-1.073,6.385,6.385,0,0,1-.871-1.355,7,7,0,0,1-.542-1.6,8.689,8.689,0,0,1-.181-1.806,7.967,7.967,0,0,1,.453-2.778,5.929,5.929,0,0,1,1.3-2.1,5.671,5.671,0,0,1,1.981-1.328,6.439,6.439,0,0,1,2.421-.455,6.079,6.079,0,0,1,2.791.622,5.053,5.053,0,0,1,1.875,1.539,3.03,3.03,0,0,1,.652,1.731,1.126,1.126,0,0,1-.317.789,1.007,1.007,0,0,1-.766.341,1.06,1.06,0,0,1-.753-.236,3.287,3.287,0,0,1-.559-.815,3.921,3.921,0,0,0-1.2-1.429,2.945,2.945,0,0,0-1.7-.473A3.092,3.092,0,0,0,39.392,63a5.5,5.5,0,0,0-.956,3.463,6.4,6.4,0,0,0,.423,2.494,3.151,3.151,0,0,0,1.2,1.486,3.314,3.314,0,0,0,1.813.49,3.192,3.192,0,0,0,1.906-.556,3.365,3.365,0,0,0,1.176-1.635,2.765,2.765,0,0,1,.414-.828.936.936,0,0,1,.792-.32,1.109,1.109,0,0,1,.8.324,1.077,1.077,0,0,1,.335.807" fill="#af7f2a"/><path d="M58.475,62.078H55.623v9.336a1.715,1.715,0,0,1-.361,1.2,1.214,1.214,0,0,1-.933.389,1.231,1.231,0,0,1-.946-.394,1.7,1.7,0,0,1-.366-1.193V62.078H50.165a1.446,1.446,0,0,1-1-.294,1.087,1.087,0,0,1,.013-1.565,1.474,1.474,0,0,1,.982-.289h8.311a1.466,1.466,0,0,1,1.008.3,1,1,0,0,1,.33.78.98.98,0,0,1-.335.775,1.482,1.482,0,0,1-1,.294" fill="#af7f2a"/><path d="M66.824,61.885H64.411v3.533h2.342a6.623,6.623,0,0,0,1.585-.162,1.866,1.866,0,0,0,.982-.553,1.581,1.581,0,0,0,.339-1.074,1.623,1.623,0,0,0-1.03-1.552,5.456,5.456,0,0,0-1.8-.193m-1.5,5.4h-.916v4.129a1.709,1.709,0,0,1-.361,1.2,1.228,1.228,0,0,1-.942.385,1.2,1.2,0,0,1-.969-.4,1.779,1.779,0,0,1-.343-1.183V61.525a1.667,1.667,0,0,1,.378-1.218A1.685,1.685,0,0,1,63.4,59.93h4.252A12.938,12.938,0,0,1,69.157,60a3.791,3.791,0,0,1,1.127.3,3.278,3.278,0,0,1,1.074.727,3.2,3.2,0,0,1,.709,1.1,3.654,3.654,0,0,1,.242,1.328,3.2,3.2,0,0,1-.814,2.3,4.683,4.683,0,0,1-2.469,1.218,4.778,4.778,0,0,1,1.329,1.087,11,11,0,0,1,1.131,1.53,11.307,11.307,0,0,1,.775,1.464,2.877,2.877,0,0,1,.277.9.913.913,0,0,1-.163.5,1.136,1.136,0,0,1-.445.394,1.4,1.4,0,0,1-.652.145,1.273,1.273,0,0,1-.739-.206,1.98,1.98,0,0,1-.515-.522q-.216-.316-.585-.929l-1.048-1.736a9.6,9.6,0,0,0-1.008-1.455,2.489,2.489,0,0,0-.9-.683,3.118,3.118,0,0,0-1.154-.184" fill="#af7f2a"/><path d="M84.627,66.32a6.008,6.008,0,0,0-.457-2.446,3.408,3.408,0,0,0-1.308-1.565,3.609,3.609,0,0,0-1.95-.531,3.541,3.541,0,0,0-1.448.294,3.175,3.175,0,0,0-1.145.854,4.074,4.074,0,0,0-.757,1.433,6.447,6.447,0,0,0-.278,1.959,6.612,6.612,0,0,0,.278,1.981,4.054,4.054,0,0,0,.784,1.468,3.294,3.294,0,0,0,1.162.873,3.684,3.684,0,0,0,3.283-.211,3.457,3.457,0,0,0,1.338-1.543,5.951,5.951,0,0,0,.5-2.569m-3.715-6.609a6.918,6.918,0,0,1,3.447.81,5.267,5.267,0,0,1,2.179,2.306,7.825,7.825,0,0,1,.739,3.511,8.552,8.552,0,0,1-.405,2.708,5.862,5.862,0,0,1-1.215,2.113,5.309,5.309,0,0,1-1.99,1.367,7.88,7.88,0,0,1-5.415-.013,5.383,5.383,0,0,1-2-1.372,5.853,5.853,0,0,1-1.21-2.13,8.554,8.554,0,0,1-.41-2.691,8.263,8.263,0,0,1,.427-2.717A5.823,5.823,0,0,1,76.3,61.5a5.35,5.35,0,0,1,1.972-1.328,7.129,7.129,0,0,1,2.641-.46" fill="#af7f2a"/><path d="M105.92,68.722a3.419,3.419,0,0,1-.3,1.328,4.8,4.8,0,0,1-.955,1.4A4.878,4.878,0,0,1,103,72.571a6.005,6.005,0,0,1-2.36.429,8.287,8.287,0,0,1-1.858-.193,5.22,5.22,0,0,1-1.519-.6,5.11,5.11,0,0,1-1.255-1.073,6.385,6.385,0,0,1-.871-1.355,7,7,0,0,1-.542-1.6,8.689,8.689,0,0,1-.181-1.806,7.967,7.967,0,0,1,.453-2.778,5.929,5.929,0,0,1,1.3-2.1,5.671,5.671,0,0,1,1.981-1.328,6.439,6.439,0,0,1,2.421-.455,6.079,6.079,0,0,1,2.791.622,5.053,5.053,0,0,1,1.875,1.539,3.03,3.03,0,0,1,.652,1.731,1.126,1.126,0,0,1-.317.789,1.007,1.007,0,0,1-.766.341,1.06,1.06,0,0,1-.753-.236,3.287,3.287,0,0,1-.559-.815,3.922,3.922,0,0,0-1.2-1.429,2.945,2.945,0,0,0-1.7-.473A3.092,3.092,0,0,0,98.018,63a5.5,5.5,0,0,0-.956,3.463,6.4,6.4,0,0,0,.423,2.494,3.151,3.151,0,0,0,1.2,1.486,3.314,3.314,0,0,0,1.813.49,3.192,3.192,0,0,0,1.906-.556,3.365,3.365,0,0,0,1.176-1.635,2.764,2.764,0,0,1,.414-.828.936.936,0,0,1,.792-.32,1.109,1.109,0,0,1,.8.324,1.077,1.077,0,0,1,.335.807" fill="#af7f2a"/><path d="M108.827,71.414V61.288a1.7,1.7,0,0,1,.361-1.183,1.206,1.206,0,0,1,.933-.394,1.249,1.249,0,0,1,.955.39,1.688,1.688,0,0,1,.366,1.188V71.414a1.7,1.7,0,0,1-.366,1.192,1.24,1.24,0,0,1-.955.394,1.2,1.2,0,0,1-.929-.4,1.7,1.7,0,0,1-.366-1.188" fill="#af7f2a"/><path d="M123.2,62.078h-2.852v9.336a1.715,1.715,0,0,1-.361,1.2,1.214,1.214,0,0,1-.933.389,1.231,1.231,0,0,1-.946-.394,1.7,1.7,0,0,1-.366-1.193V62.078h-2.852a1.446,1.446,0,0,1-1-.294,1.087,1.087,0,0,1,.013-1.565,1.474,1.474,0,0,1,.982-.289H123.2a1.466,1.466,0,0,1,1.008.3,1,1,0,0,1,.33.78.98.98,0,0,1-.335.775,1.482,1.482,0,0,1-1,.294" fill="#af7f2a"/><path d="M129.414,71.414V67.337l-3.152-4.865a10.186,10.186,0,0,1-.585-1.025,1.565,1.565,0,0,1-.172-.64,1.022,1.022,0,0,1,.348-.771,1.212,1.212,0,0,1,.858-.324,1.05,1.05,0,0,1,.814.3,8.983,8.983,0,0,1,.832,1.205l2.413,3.9,2.439-3.9.37-.6a3.68,3.68,0,0,1,.33-.46,1.307,1.307,0,0,1,.4-.329,1.15,1.15,0,0,1,.536-.114,1.137,1.137,0,0,1,.823.319,1,1,0,0,1,.33.741,1.538,1.538,0,0,1-.167.683,8.853,8.853,0,0,1-.572.947l-3.231,4.935v4.077a1.69,1.69,0,0,1-.37,1.192,1.328,1.328,0,0,1-1.884,0,1.711,1.711,0,0,1-.361-1.2" fill="#af7f2a"/></g></svg>