<svg xmlns="http://www.w3.org/2000/svg" xmlns:xlink="http://www.w3.org/1999/xlink" width="161" height="161" viewBox="0 0 161 161"><defs><clipPath id="a"><rect width="160.916" height="160.916" fill="none"/></clipPath></defs><g ><rect width="158.916" height="158.916" transform="translate(1 1)" fill="none" stroke="#af7f2a" stroke-miterlimit="10" stroke-width="2"/><rect width="46.964" height="81.204" rx="12" transform="translate(39.077 37.969)" fill="none" stroke="#af7f2a" stroke-miterlimit="10" stroke-width="2"/><rect width="30.043" height="13.468" transform="translate(47.537 54.299)" fill="none" stroke="#af7f2a" stroke-miterlimit="10" stroke-width="2"/><path d="M70.134,101.195a7.576,7.576,0,1,1-7.576-7.576A7.576,7.576,0,0,1,70.134,101.195Z" fill="none" stroke="#af7f2a" stroke-miterlimit="10" stroke-width="2"/><path d="M49.618,106.039a1,1,0,0,1-.962-.732,15.454,15.454,0,0,1-.523-3.05,1,1,0,0,1,.929-1.067,1.013,1.013,0,0,1,1.067.929,13.418,13.418,0,0,0,.454,2.653,1,1,0,0,1-.965,1.267m26.167-.969a.953.953,0,0,1-.211-.023,1,1,0,0,1-.767-1.188,12.706,12.706,0,0,0,.283-2.664,1.023,1.023,0,0,1,1-1.028.976.976,0,0,1,1,.973v.055a14.623,14.623,0,0,1-.328,3.086,1,1,0,0,1-.977.789M49.606,98.4a1.063,1.063,0,0,1-.266-.035,1,1,0,0,1-.7-1.23,14.737,14.737,0,0,1,1.13-2.889,1,1,0,0,1,1.775.922,12.692,12.692,0,0,0-.975,2.5,1,1,0,0,1-.964.736m25.616-.988a1,1,0,0,1-.936-.647,12.4,12.4,0,0,0-1.209-2.388,1,1,0,0,1,1.678-1.09,14.436,14.436,0,0,1,1.4,2.773,1,1,0,0,1-.935,1.352M53.631,91.943a1,1,0,0,1-.652-1.758,13.765,13.765,0,0,1,2.577-1.752,1,1,0,0,1,.932,1.769,11.75,11.75,0,0,0-2.2,1.5,1,1,0,0,1-.652.242m17-.611a1,1,0,0,1-.6-.2,12.532,12.532,0,0,0-2.307-1.36,1,1,0,0,1,.826-1.823,14.66,14.66,0,0,1,2.675,1.578,1,1,0,0,1-.6,1.8M60.594,88.848a1,1,0,0,1-.149-1.988,18.917,18.917,0,0,1,2.073-.2c.357.006.7.011,1.031.033a1,1,0,1,1-.135,2q-.425-.03-.856-.03a17.152,17.152,0,0,0-1.813.174.96.96,0,0,1-.151.012" fill="#af7f2a"/><path d="M75.938,119.174v6.3a4.141,4.141,0,0,0,4.142,4.141h25.507a3.893,3.893,0,0,0,3.893-3.893V51.172" fill="none" stroke="#af7f2a" stroke-miterlimit="10" stroke-width="2"/><rect width="6.475" height="18.368" transform="translate(106.242 32.804)" fill="none" stroke="#af7f2a" stroke-miterlimit="10" stroke-width="2"/><line y1="12.561" transform="translate(109.479 20.243)" fill="none" stroke="#af7f2a" stroke-linecap="round" stroke-miterlimit="10" stroke-width="2"/><path d="M68.556,119.174v8.357a8.719,8.719,0,0,0,8.72,8.719h38.741a8.471,8.471,0,0,0,8.472-8.472V51.172" fill="none" stroke="#af7f2a" stroke-miterlimit="10" stroke-width="2"/><rect width="6.475" height="18.368" transform="translate(121.251 32.804)" fill="none" stroke="#af7f2a" stroke-miterlimit="10" stroke-width="2"/><line y1="12.561" transform="translate(124.489 20.243)" fill="none" stroke="#af7f2a" stroke-linecap="round" stroke-miterlimit="10" stroke-width="2"/></g></svg>