<svg xmlns="http://www.w3.org/2000/svg" xmlns:xlink="http://www.w3.org/1999/xlink" width="161" height="161" viewBox="0 0 161 161"><defs><clipPath id="a"><rect width="160.916" height="160.916" fill="none"/></clipPath></defs><g ><rect width="158.916" height="158.916" transform="translate(1 1)" fill="none" stroke="#af7f2a" stroke-miterlimit="10" stroke-width="2"/><path d="M51.621,125.744V94.986A18.67,18.67,0,0,1,70.237,76.371H90.988A18.671,18.671,0,0,1,109.6,94.986v30.758" fill="none" stroke="#af7f2a" stroke-miterlimit="10" stroke-width="2"/><line y2="26.799" transform="translate(63.778 98.945)" fill="none" stroke="#af7f2a" stroke-miterlimit="10" stroke-width="2"/><line y2="26.799" transform="translate(97.447 98.945)" fill="none" stroke="#af7f2a" stroke-miterlimit="10" stroke-width="2"/><path d="M67.649,55.582v2.389a12.963,12.963,0,1,0,25.927,0V55.582" fill="none" stroke="#af7f2a" stroke-linecap="round" stroke-miterlimit="10" stroke-width="2"/><path d="M83.238,33.625A14.285,14.285,0,0,1,96.214,47.848v4.43h-31.2v-4.43A14.283,14.283,0,0,1,77.591,33.667" fill="none" stroke="#af7f2a" stroke-miterlimit="10" stroke-width="2"/><path d="M96.511,52.531c-6.746,5.694-9.259,6.058-15.9,6.058-6.67,0-8.426.954-15.9-6.058" fill="none" stroke="#af7f2a" stroke-miterlimit="10" stroke-width="2"/><rect width="6.022" height="19.846" transform="translate(77.491 32.431)" fill="none" stroke="#af7f2a" stroke-linecap="round" stroke-miterlimit="10" stroke-width="2"/><path d="M143.057,20.962h-2.706a4.117,4.117,0,0,0-1.34-2.734,4.336,4.336,0,0,0-2.96-.991,4.612,4.612,0,0,0-3.1.964,3,3,0,0,0-1.126,2.372,3.229,3.229,0,0,0,.353,1.5A6.221,6.221,0,0,0,133.72,23.9a29.524,29.524,0,0,0,3.674,2.456,31.183,31.183,0,0,1,4.149,2.8,6.628,6.628,0,0,1,1.624,2.095,5.1,5.1,0,0,1,.538,2.2,5.018,5.018,0,0,1-1.436,3.447,6.762,6.762,0,0,1-3.863,2.038,9.214,9.214,0,0,1,3,2.872,6.236,6.236,0,0,1,1.038,3.355,5.325,5.325,0,0,1-1.89,4.133,7.155,7.155,0,0,1-4.948,1.686,8,8,0,0,1-5.023-1.538,5.971,5.971,0,0,1-2.39-3.8h2.742a4,4,0,0,0,1.243,1.835,5.033,5.033,0,0,0,3.261,1.074,4.641,4.641,0,0,0,3.1-.982A3.007,3.007,0,0,0,139.7,45.2a3.931,3.931,0,0,0-.926-2.446,18.964,18.964,0,0,0-4.263-3.318q-3.187-2.039-3.891-2.557a8.52,8.52,0,0,1-2.29-2.52,5.469,5.469,0,0,1-.731-2.688,4.963,4.963,0,0,1,.574-2.288A6.053,6.053,0,0,1,129.8,27.42a7.512,7.512,0,0,1,2.622-1.306,8.475,8.475,0,0,1-2.567-2.65,6.066,6.066,0,0,1-.732-2.965,5.389,5.389,0,0,1,1.863-4.226,7.313,7.313,0,0,1,5.031-1.65,7.024,7.024,0,0,1,4.893,1.641,7.1,7.1,0,0,1,2.15,4.7m-8.47,6.579a5.654,5.654,0,0,0-3.159,1.4,3.491,3.491,0,0,0-1.122,2.6,3.636,3.636,0,0,0,.983,2.464,18.257,18.257,0,0,0,4.948,3.411A6.206,6.206,0,0,0,139.749,36,3.444,3.444,0,0,0,141,33.4a3.092,3.092,0,0,0-.871-2.113,30.057,30.057,0,0,0-5.282-3.577Z" fill="#af7f2a"/></g></svg>