<svg xmlns="http://www.w3.org/2000/svg" xmlns:xlink="http://www.w3.org/1999/xlink" width="161" height="161" viewBox="0 0 161 161"><defs><clipPath id="a"><rect width="160.916" height="160.916" fill="none"/></clipPath></defs><path d="M93.521,108.17H54.272L44.026,88.487H83.275Z" fill="none" stroke="#af7f2a" stroke-miterlimit="10" stroke-width="2"/><path d="M148.556,108.17H109.307L99.061,88.487H138.31Z" fill="none" stroke="#af7f2a" stroke-miterlimit="10" stroke-width="2"/><path d="M72.663,79.481l3.2,6.2h2.254l-4.246-8.2h-41.5L42.8,97.517h2.255L35.668,79.481Z" fill="#af7f2a"/><path d="M127.7,79.481l3.2,6.2h2.254l-4.246-8.2h-41.5L97.836,97.517h2.255L90.7,79.481Z" fill="#af7f2a"/><path d="M62.656,69.474l3.2,6.2h2.254l-4.246-8.2h-41.5L32.8,87.51H35.05L25.661,69.474Z" fill="#af7f2a"/><path d="M117.691,69.474l3.2,6.2h2.254l-4.246-8.2H77.4L87.83,87.51h2.255L80.7,69.474Z" fill="#af7f2a"/><path d="M52.65,59.468l3.2,6.2h2.254l-4.246-8.2H12.36L22.789,77.5h2.255L15.655,59.468Z" fill="#af7f2a"/><path d="M107.685,59.468l3.2,6.2h2.254l-4.246-8.2h-41.5L77.824,77.5h2.255L70.69,59.468Z" fill="#af7f2a"/><g clip-path="url(#a)"><rect width="158.916" height="158.916" transform="translate(1 1)" fill="none" stroke="#af7f2a" stroke-miterlimit="10" stroke-width="2"/></g></svg>