<svg xmlns="http://www.w3.org/2000/svg" xmlns:xlink="http://www.w3.org/1999/xlink" width="161" height="161" viewBox="0 0 161 161"><defs><clipPath id="a"><rect width="160.916" height="160.916" fill="none"/></clipPath></defs><g ><rect width="158.916" height="158.916" transform="translate(1 1)" fill="none" stroke="#af7f2a" stroke-miterlimit="10" stroke-width="2"/></g><path d="M132.744,131.355l-6.216-45.836V65.959l-5.05-20.072-5.051,20.072v19.56l-6.215,45.836" fill="none" stroke="#af7f2a" stroke-miterlimit="10" stroke-width="2"/><path d="M140.431,65.506H102.524L118.5,55.719h5.955Z" fill="none" stroke="#af7f2a" stroke-miterlimit="10" stroke-width="2"/><path d="M140.431,85.518H102.524L116.427,77h10.1Z" fill="none" stroke="#af7f2a" stroke-miterlimit="10" stroke-width="2"/><line x2="7.41" y2="9.787" transform="translate(119.004 55.719)" fill="none" stroke="#af7f2a" stroke-miterlimit="10" stroke-width="2"/><line x1="8.028" y2="10.24" transform="translate(116.427 55.719)" fill="none" stroke="#af7f2a" stroke-miterlimit="10" stroke-width="2"/><line x1="10.101" y1="11.043" transform="translate(116.427 65.959)" fill="none" stroke="#af7f2a" stroke-miterlimit="10" stroke-width="2"/><line y1="11.043" x2="10.101" transform="translate(116.427 65.959)" fill="none" stroke="#af7f2a" stroke-miterlimit="10" stroke-width="2"/><line x1="11.873" y1="12.814" transform="translate(116.427 85.731)" fill="none" stroke="#af7f2a" stroke-miterlimit="10" stroke-width="2"/><line y1="12.918" x2="11.976" transform="translate(114.551 85.731)" fill="none" stroke="#af7f2a" stroke-miterlimit="10" stroke-width="2"/><line x1="15.064" y1="13.277" transform="translate(114.974 98.463)" fill="none" stroke="#af7f2a" stroke-miterlimit="10" stroke-width="2"/><line y1="13.289" x2="15.075" transform="translate(112.936 98.462)" fill="none" stroke="#af7f2a" stroke-miterlimit="10" stroke-width="2"/><line x1="19.825" y1="18.196" transform="translate(112.919 111.734)" fill="none" stroke="#af7f2a" stroke-miterlimit="10" stroke-width="2"/><line y1="18.447" x2="19.912" transform="translate(110.404 111.483)" fill="none" stroke="#af7f2a" stroke-miterlimit="10" stroke-width="2"/><line x1="10.101" y1="8.517" transform="translate(116.427 77.001)" fill="none" stroke="#af7f2a" stroke-miterlimit="10" stroke-width="2"/><line y1="8.304" x2="10.448" transform="translate(116.427 77.214)" fill="none" stroke="#af7f2a" stroke-miterlimit="10" stroke-width="2"/><g ><path d="M49.943,123.976s30.374-4.222,57.568-38.457" fill="none" stroke="#af7f2a" stroke-miterlimit="10" stroke-width="2"/><path d="M49.943,127.947s32.751-3.584,63.525-42.327" fill="none" stroke="#af7f2a" stroke-miterlimit="10" stroke-width="2"/><path d="M51.852,53.393a5.051,5.051,0,1,1-5.05-5.05A5.05,5.05,0,0,1,51.852,53.393Z" fill="none" stroke="#af7f2a" stroke-miterlimit="10" stroke-width="2"/><line y1="20.46" transform="translate(46.802 23.826)" fill="none" stroke="#af7f2a" stroke-linecap="round" stroke-miterlimit="10" stroke-width="2"/><line x1="17.719" y1="10.23" transform="translate(54.69 57.948)" fill="none" stroke="#af7f2a" stroke-linecap="round" stroke-miterlimit="10" stroke-width="2"/><line x1="17.719" y2="10.23" transform="translate(21.195 57.947)" fill="none" stroke="#af7f2a" stroke-linecap="round" stroke-miterlimit="10" stroke-width="2"/><line x1="1.001" y2="71.891" transform="translate(43.6 58.444)" fill="none" stroke="#af7f2a" stroke-linecap="round" stroke-miterlimit="10" stroke-width="2"/><line x2="1.001" y2="71.891" transform="translate(49.004 58.444)" fill="none" stroke="#af7f2a" stroke-linecap="round" stroke-miterlimit="10" stroke-width="2"/></g></svg>