<svg xmlns="http://www.w3.org/2000/svg" xmlns:xlink="http://www.w3.org/1999/xlink" width="161" height="161" viewBox="0 0 161 161"><defs><clipPath id="a"><rect width="160.916" height="160.916" fill="none"/></clipPath></defs><g ><rect width="158.916" height="158.916" transform="translate(1 1)" fill="none" stroke="#af7f2a" stroke-miterlimit="10" stroke-width="2"/></g><path d="M57.264,87.546V108.17H30.348V87.546" fill="none" stroke="#af7f2a" stroke-miterlimit="10" stroke-width="2"/><path d="M67.285,89.167,43.806,72.912,20.327,89.167" fill="none" stroke="#af7f2a" stroke-miterlimit="10" stroke-width="2"/><path d="M127.74,109.595l-6.216-45.836V44.2l-5.05-20.072L111.423,44.2v19.56l-6.215,45.836" fill="none" stroke="#af7f2a" stroke-miterlimit="10" stroke-width="2"/><path d="M135.428,43.746H97.521L113.5,33.959h5.955Z" fill="none" stroke="#af7f2a" stroke-miterlimit="10" stroke-width="2"/><path d="M135.428,63.758H97.521l13.9-8.517h10.1Z" fill="none" stroke="#af7f2a" stroke-miterlimit="10" stroke-width="2"/><line x2="7.41" y2="9.787" transform="translate(114 33.959)" fill="none" stroke="#af7f2a" stroke-miterlimit="10" stroke-width="2"/><line x1="8.028" y2="10.24" transform="translate(111.424 33.959)" fill="none" stroke="#af7f2a" stroke-miterlimit="10" stroke-width="2"/><line x1="10.101" y1="11.043" transform="translate(111.424 44.199)" fill="none" stroke="#af7f2a" stroke-miterlimit="10" stroke-width="2"/><line y1="11.043" x2="10.101" transform="translate(111.424 44.199)" fill="none" stroke="#af7f2a" stroke-miterlimit="10" stroke-width="2"/><line x1="11.873" y1="12.814" transform="translate(111.423 63.971)" fill="none" stroke="#af7f2a" stroke-miterlimit="10" stroke-width="2"/><line y1="12.918" x2="11.976" transform="translate(109.548 63.971)" fill="none" stroke="#af7f2a" stroke-miterlimit="10" stroke-width="2"/><line x1="15.064" y1="13.277" transform="translate(109.971 76.703)" fill="none" stroke="#af7f2a" stroke-miterlimit="10" stroke-width="2"/><line y1="13.289" x2="15.075" transform="translate(107.933 76.702)" fill="none" stroke="#af7f2a" stroke-miterlimit="10" stroke-width="2"/><line x1="19.825" y1="18.196" transform="translate(107.915 89.974)" fill="none" stroke="#af7f2a" stroke-miterlimit="10" stroke-width="2"/><line y1="18.447" x2="19.912" transform="translate(105.401 89.723)" fill="none" stroke="#af7f2a" stroke-miterlimit="10" stroke-width="2"/><line x1="10.101" y1="8.517" transform="translate(111.424 55.242)" fill="none" stroke="#af7f2a" stroke-miterlimit="10" stroke-width="2"/><line y1="8.304" x2="10.448" transform="translate(111.424 55.455)" fill="none" stroke="#af7f2a" stroke-miterlimit="10" stroke-width="2"/><g ><path d="M57.264,93.149s18.05,4.845,45.244-29.39" fill="none" stroke="#af7f2a" stroke-miterlimit="10" stroke-width="2"/><path d="M57.264,97.12s20.427,5.483,51.2-33.26" fill="none" stroke="#af7f2a" stroke-miterlimit="10" stroke-width="2"/></g></svg>