<svg xmlns="http://www.w3.org/2000/svg" xmlns:xlink="http://www.w3.org/1999/xlink" width="161" height="161" viewBox="0 0 161 161"><defs><clipPath id="a"><rect width="160.916" height="160.916" fill="none"/></clipPath></defs><g clip-path="url(#a)"><rect width="158.916" height="158.916" transform="translate(1 1)" fill="none" stroke="#af7f2a" stroke-miterlimit="10" stroke-width="2"/><path d="M85.508,53.393a5.051,5.051,0,1,1-5.05-5.05A5.05,5.05,0,0,1,85.508,53.393Z" fill="none" stroke="#af7f2a" stroke-miterlimit="10" stroke-width="2"/><line y1="20.46" transform="translate(80.458 23.826)" fill="none" stroke="#af7f2a" stroke-linecap="round" stroke-miterlimit="10" stroke-width="2"/><line x1="17.719" y1="10.23" transform="translate(88.346 57.948)" fill="none" stroke="#af7f2a" stroke-linecap="round" stroke-miterlimit="10" stroke-width="2"/><line x1="17.719" y2="10.23" transform="translate(54.851 57.947)" fill="none" stroke="#af7f2a" stroke-linecap="round" stroke-miterlimit="10" stroke-width="2"/><line x1="1.001" y2="71.891" transform="translate(77.255 58.444)" fill="none" stroke="#af7f2a" stroke-linecap="round" stroke-miterlimit="10" stroke-width="2"/><line x2="1.001" y2="71.891" transform="translate(82.659 58.444)" fill="none" stroke="#af7f2a" stroke-linecap="round" stroke-miterlimit="10" stroke-width="2"/><path d="M75.982,118.915S64.356,113.39,56.9,108.21s-20.4,10.878-40.363,14.5" fill="none" stroke="#af7f2a" stroke-linecap="round" stroke-miterlimit="10" stroke-width="2"/><path d="M85.1,118.915s11.626-5.525,19.085-10.705,20.4,10.878,40.362,14.5" fill="none" stroke="#af7f2a" stroke-linecap="round" stroke-miterlimit="10" stroke-width="2"/></g></svg>