<svg xmlns="http://www.w3.org/2000/svg" xmlns:xlink="http://www.w3.org/1999/xlink" width="161" height="161" viewBox="0 0 161 161"><defs><clipPath id="a"><rect width="160.916" height="160.916" fill="none"/></clipPath></defs><g clip-path="url(#a)"><rect width="158.916" height="158.916" transform="translate(1 1)" fill="none" stroke="#af7f2a" stroke-miterlimit="10" stroke-width="2"/><path d="M143.057,20.962h-2.706a4.117,4.117,0,0,0-1.34-2.734,4.336,4.336,0,0,0-2.96-.991,4.612,4.612,0,0,0-3.1.964,3,3,0,0,0-1.126,2.372,3.229,3.229,0,0,0,.353,1.5A6.221,6.221,0,0,0,133.72,23.9a29.524,29.524,0,0,0,3.674,2.456,31.183,31.183,0,0,1,4.149,2.8,6.628,6.628,0,0,1,1.624,2.095,5.1,5.1,0,0,1,.538,2.2,5.018,5.018,0,0,1-1.436,3.447,6.762,6.762,0,0,1-3.863,2.038,9.214,9.214,0,0,1,3,2.872,6.236,6.236,0,0,1,1.038,3.355,5.325,5.325,0,0,1-1.89,4.133,7.155,7.155,0,0,1-4.948,1.686,8,8,0,0,1-5.023-1.538,5.971,5.971,0,0,1-2.39-3.8h2.742a4,4,0,0,0,1.243,1.835,5.033,5.033,0,0,0,3.261,1.074,4.641,4.641,0,0,0,3.1-.982A3.007,3.007,0,0,0,139.7,45.2a3.931,3.931,0,0,0-.926-2.446,18.964,18.964,0,0,0-4.263-3.318q-3.187-2.039-3.891-2.557a8.52,8.52,0,0,1-2.29-2.52,5.469,5.469,0,0,1-.731-2.688,4.963,4.963,0,0,1,.574-2.288A6.053,6.053,0,0,1,129.8,27.42a7.512,7.512,0,0,1,2.622-1.306,8.475,8.475,0,0,1-2.567-2.65,6.066,6.066,0,0,1-.732-2.965,5.389,5.389,0,0,1,1.863-4.226,7.313,7.313,0,0,1,5.031-1.65,7.024,7.024,0,0,1,4.893,1.641,7.1,7.1,0,0,1,2.15,4.7m-8.47,6.579a5.654,5.654,0,0,0-3.159,1.4,3.491,3.491,0,0,0-1.122,2.6,3.636,3.636,0,0,0,.983,2.464,18.257,18.257,0,0,0,4.948,3.411A6.206,6.206,0,0,0,139.749,36,3.444,3.444,0,0,0,141,33.4a3.092,3.092,0,0,0-.871-2.113,30.057,30.057,0,0,0-5.282-3.577Z" fill="#af7f2a"/><path d="M53.672,114.842c.079,1.449-1.755,2.727-4.1,2.854s-4.3-.946-4.381-2.395,1.755-2.726,4.1-2.853S53.593,113.393,53.672,114.842Z" fill="none" stroke="#af7f2a" stroke-miterlimit="10" stroke-width="1.561"/><path d="M45.177,114.965l-3.019-55.7c-.078-1.45,1.756-2.728,4.1-2.854s4.3.945,4.38,2.394l3.019,55.7" fill="none" stroke="#af7f2a" stroke-miterlimit="10" stroke-width="1.561"/><path d="M115.847,115.289c-.072,1.449-2.029,2.53-4.37,2.414s-4.181-1.386-4.109-2.835,2.029-2.531,4.37-2.414S115.919,113.84,115.847,115.289Z" fill="none" stroke="#af7f2a" stroke-miterlimit="10" stroke-width="1.561"/><path d="M107.385,114.531l2.769-55.715c.072-1.45,2.029-2.53,4.37-2.414s4.181,1.386,4.109,2.835l-2.769,55.715" fill="none" stroke="#af7f2a" stroke-miterlimit="10" stroke-width="1.561"/><line x2="62.291" transform="translate(49.283 117.706)" fill="none" stroke="#af7f2a" stroke-miterlimit="10" stroke-width="1.561"/><line x2="59.438" transform="translate(50.678 59.594)" fill="none" stroke="#af7f2a" stroke-miterlimit="10" stroke-width="1.561"/><line y2="11.689" transform="translate(67.928 73.983)" fill="none" stroke="#af7f2a" stroke-miterlimit="10" stroke-width="1.561"/><line y2="11.689" transform="translate(72.932 73.983)" fill="none" stroke="#af7f2a" stroke-miterlimit="10" stroke-width="1.561"/><line y2="18.207" transform="translate(67.928 88.621)" fill="none" stroke="#af7f2a" stroke-miterlimit="10" stroke-width="1.561"/><line y2="18.207" transform="translate(72.932 88.621)" fill="none" stroke="#af7f2a" stroke-miterlimit="10" stroke-width="1.561"/><path d="M69.552,87.019a1.6,1.6,0,1,1-1.6-1.6A1.6,1.6,0,0,1,69.552,87.019Z" fill="none" stroke="#af7f2a" stroke-miterlimit="10" stroke-width="1.104"/><path d="M74.556,87.019a1.6,1.6,0,1,1-1.6-1.6A1.6,1.6,0,0,1,74.556,87.019Z" fill="none" stroke="#af7f2a" stroke-miterlimit="10" stroke-width="1.104"/><line y2="11.689" transform="translate(87.941 73.983)" fill="none" stroke="#af7f2a" stroke-miterlimit="10" stroke-width="1.561"/><line y2="11.689" transform="translate(92.944 73.983)" fill="none" stroke="#af7f2a" stroke-miterlimit="10" stroke-width="1.561"/><line y2="18.207" transform="translate(87.941 88.621)" fill="none" stroke="#af7f2a" stroke-miterlimit="10" stroke-width="1.561"/><line y2="18.207" transform="translate(92.944 88.621)" fill="none" stroke="#af7f2a" stroke-miterlimit="10" stroke-width="1.561"/><path d="M89.565,87.019a1.6,1.6,0,1,1-1.6-1.6A1.6,1.6,0,0,1,89.565,87.019Z" fill="none" stroke="#af7f2a" stroke-miterlimit="10" stroke-width="1.104"/><path d="M94.568,87.019a1.6,1.6,0,1,1-1.6-1.6A1.6,1.6,0,0,1,94.568,87.019Z" fill="none" stroke="#af7f2a" stroke-miterlimit="10" stroke-width="1.104"/><line x2="58.117" transform="translate(51.225 73.983)" fill="none" stroke="#af7f2a" stroke-miterlimit="10" stroke-width="1.561"/><line x2="54.53" transform="translate(53.237 106.828)" fill="none" stroke="#af7f2a" stroke-miterlimit="10" stroke-width="1.561"/></g></svg>